<svg width="512" height="512" viewBox="0 0 512 512" fill="none" xmlns="http://www.w3.org/2000/svg">
<g clip-path="url(#clip0_2_2)">
<path d="M196.288 362.437L246.784 311.835L132.885 197.879C116.544 181.518 116.523 154.818 132.971 138.328C149.397 121.902 175.979 121.902 192.384 138.306L196.309 142.236L246.869 91.6559L242.944 87.7257C214.101 58.8896 173.653 48.8077 136.704 57.4798C131.392 24.8844 103.168 0.02136 69.12 0C31.296 0 0.640032 30.7157 0.640032 68.5871C0.640032 101.247 23.4454 128.587 53.9734 135.487C42.4107 174.212 51.8614 217.915 82.3894 248.481L196.288 362.437Z" fill="#2F4858"/>
<path d="M262.677 87.8325C293.099 57.3731 336.448 47.7824 374.976 59.1246C379.584 25.7388 408.213 0 442.837 0C480.661 0 511.339 30.6944 511.339 68.5871C511.339 103.404 485.419 132.155 451.861 136.576C462.891 175.003 453.269 218.107 423.04 248.396L419.115 252.347L368.619 201.724L372.523 197.794C388.928 181.368 388.928 154.732 372.544 138.328C356.181 121.966 329.664 121.944 313.195 138.413L199.317 252.347L148.757 201.767L262.677 87.8325Z" fill="#2F4858"/>
<path d="M372.523 318.863C388.992 335.353 388.949 361.903 372.608 378.286C356.224 394.691 329.621 394.691 313.195 378.265L309.312 374.377L258.816 425.001L262.699 428.867C293.461 459.668 337.493 469.088 376.363 457.105C382.699 488.44 410.325 512 443.499 512C481.323 512 512 481.327 512 443.434C512 408.831 486.421 380.209 453.141 375.531C462.187 338.3 452.139 297.374 423.083 268.282L309.312 154.284L258.752 204.843L372.523 318.863Z" fill="#2F4858"/>
<path d="M306.155 264.33L356.651 314.954L242.923 428.931C213.739 458.151 172.608 468.084 135.253 458.814C128.277 489.294 101.013 511.979 68.48 512C30.6347 512 -0.0213013 481.306 -0.0213013 443.434C-0.0213013 411.01 22.464 383.818 52.672 376.684C43.1147 339.112 53.0134 297.609 82.3894 268.197L86.2507 264.33L136.811 314.911L132.885 318.798C116.48 335.224 116.501 361.839 132.907 378.265C149.376 394.755 176.021 394.712 192.384 378.329L306.155 264.33Z" fill="#2F4858"/>
</g>
<defs>
<clipPath id="clip0_2_2">
<rect width="512" height="512" fill="white"/>
</clipPath>
</defs>
</svg>
